<?xml version="1.0" encoding="UTF-8"?>
<svg id="Layer_2" data-name="Layer 2" xmlns="http://www.w3.org/2000/svg" viewBox="0 0 531.84 220">
  <defs>
    <style>
      .cls-1 {
        fill: #fff;
      }

      .cls-2 {
        fill: #9bcdd8;
      }

      .cls-3 {
        fill: #e24210;
      }
    </style>
  </defs>
  <g id="Layer_1-2" data-name="Layer 1">
    <g>
      <g>
        <path class="cls-1" d="M0,93.4l6.09-15.88c4.14,2.82,8.56,5.01,13.27,6.58,4.71,1.57,9.28,2.35,13.69,2.35,5.59,0,9.85-1.18,12.79-3.53,2.93-2.35,4.4-5.24,4.4-8.66,0-2.35-.56-4.36-1.66-6.02-1.11-1.66-3.25-3.4-6.41-5.23-3.17-1.82-7.73-3.84-13.69-6.06-9.34-3.42-16.01-7.42-19.99-12.01-3.98-4.59-5.97-10-5.97-16.24,0-3.76.76-7.37,2.27-10.81,1.52-3.44,3.67-6.5,6.45-9.16s6.3-4.79,10.55-6.37c4.25-1.58,8.95-2.38,14.1-2.38s10.05.64,14.97,1.92c4.92,1.28,9.06,2.88,12.42,4.8l-5.63,15.49c-7.92-4.43-15.32-6.65-22.18-6.65-5.04,0-8.86,1.2-11.47,3.6-2.61,2.4-3.92,5.45-3.92,9.14,0,3.14,1.47,5.86,4.4,8.17,2.94,2.31,7.96,4.75,15.08,7.34,5.55,2.17,10.16,4.36,13.85,6.58,3.69,2.22,6.61,4.57,8.76,7.06,2.15,2.49,3.68,5.08,4.57,7.75.89,2.68,1.34,5.7,1.34,9.07,0,8.88-3.16,15.88-9.48,21.02-6.32,5.13-15.03,7.7-26.11,7.7-5.65,0-11.3-.87-16.93-2.6-5.63-1.74-10.82-4.06-15.57-6.98Z"/>
        <path class="cls-1" d="M91.95,1.66h19.37l18.88,63.49L156.96.69h5.81l27.04,64.32L208.49,1.66h18.95l-31.09,100.84h-6.07l-30.83-67.23-30.35,67.23h-5.93L91.95,1.66Z"/>
        <path class="cls-1" d="M258.77,101.26V1.66h17.57v99.6h-17.57Z"/>
        <path class="cls-1" d="M317.63,101.26V1.11h5.53l61.63,64.19V1.66h17.57v100.29h-4.7l-62.46-62.46v61.76h-17.57Z"/>
        <path class="cls-1" d="M437.15,51.4c0-7.06,1.43-13.77,4.29-20.13,2.86-6.36,6.69-11.83,11.48-16.4,4.79-4.56,10.5-8.18,17.12-10.86,6.62-2.68,13.54-4.01,20.78-4.01,4.15,0,8.21.28,12.15.83,3.95.55,7.25,1.22,9.9,2.01,2.65.78,5.02,1.57,7.1,2.35,2.08.78,3.6,1.45,4.57,2.01l1.46.83-6.11,15.08c-.37-.18-.87-.43-1.49-.73-.62-.3-1.92-.82-3.88-1.56-1.96-.74-3.92-1.39-5.88-1.97-1.96-.58-4.32-1.11-7.06-1.59-2.75-.48-5.34-.73-7.79-.73-11.53,0-20.69,3.26-27.49,9.79-6.8,6.53-10.2,14.98-10.2,25.36s3.41,18.32,10.24,24.9c6.82,6.58,15.4,9.87,25.73,9.87,8.07,0,15.63-1.31,22.69-3.94v-17.71h-27.67v-15.84h44.75v42.72c-.42.32-1.01.74-1.77,1.24-.76.51-2.43,1.4-4.99,2.69-2.56,1.29-5.24,2.43-8.04,3.44-2.79,1.01-6.35,1.92-10.67,2.72-4.32.8-8.7,1.2-13.13,1.2-8.25,0-15.9-1.31-22.93-3.94-7.03-2.63-12.96-6.22-17.78-10.79-4.82-4.56-8.59-10.03-11.31-16.39-2.72-6.36-4.08-13.19-4.08-20.47Z"/>
      </g>
      <g>
        <path d="M173.69,205.55c.08,1.29,1.19.79.78,2.33-.08.32-1.03.61-1.51.8-.88.35-1.2,2.2-1.94,2.44s-1.29-.87-1.29-.87c.55-.47,1.64-2.19,1.34-5.37-.07-.77-2-5.48-2.98-7.74-1.02-2.36-2.04-4.72-3.06-7.09-.47-1.09-.95-2.19-1.42-3.28-.69-2.01-1.38-4.01-2.07-6.02-.47-1.36-.94-2.73-1.41-4.09-.12-.35-.47-.95-.45-1.32.03-.47-.01-.3.5-.58.6-.33,1.22-.63,1.83-.94,1.08-.56,2.26-.93,3.47-1.09.78-.11,2.03-.16,2.63.49.04.04.07.09.1.13.23.33.21.71.26,1.14.39,3.47.47,6.92.82,10.41.08.78.16,1.57.39,2.31.39,1.24,1.2,2.31,1.84,3.44.74,1.31,1.27,2.75,1.49,4.24.21,1.47.04,3.37.16,4.84.13,1.61.51,5.82.51,5.82"/>
        <path d="M84.52,219.69c.12-.09.1-.6.41-.73.7-.3,2.17.33,3.48.84.95.37,7.19.18,8.63-.18.63-.16.84-.96.37-1.41-.77-.73-1.74-.95-2.78-1.01-1.64-.09-3.19-1.25-4.23-2.53,0,0-.02-.02-.02-.03-.5-.62-2.6-2.04-2.67-2.2-.32-.76.1-2.07-.58-2.82-.7-.36-1.51-.14-2.25-.32-.62-.15-1.23-.31-1.8-.3-1.37.02-1.07,1.89-1.48,2.8-.41.92-1.6,1.52-1.88,2.7-.22.89-.15,3.22.34,3.93s3.84,1.71,4.46,1.26Z"/>
        <path d="M.76,188.87c.12.09.6-.09.82.17.51.58.35,2.16.27,3.57-.06,1.01.12,2.02.52,2.96.61,1.43,1.53,3.94,2.31,5.2.34.55,1.17.5,1.45-.09.46-.95.37-1.95.11-2.95-.42-1.59-.2-3.29.69-4.67,0-.01.01-.02.02-.03.43-.67,1.14-3.11,1.27-3.22.63-.54,2-.55,2.51-1.42.12-.78-.33-1.48-.39-2.23-.05-.63.32-1.39.14-1.94-.44-1.3-2.13-.43-3.12-.54s-1.94-1.05-3.15-.96c-.92.07-3.11.85-3.63,1.54-.5.66-.45,4.18.17,4.63Z"/>
        <path d="M114.97,151.3l5.35-.99c.64-.12,1.29.03,1.82.4l3.62,2.56-3.77,1.98c-.49.26-1.05.35-1.6.27l-2.91-.45c-.16-.02-.31-.08-.45-.17l-1.86-1.01-.21-2.58Z"/>
        <polygon points="86.67 207.59 86.67 210.41 82.25 210.41 82.25 208.55 86.67 207.59"/>
        <path class="cls-3" d="M92.67,204.71l-1.98-16.39c-.24-2.3-1.28-4.44-2.92-6.06l-12.22-7.52c-.19-.19-.35-.4-.49-.64l-3.73-6.61-15.74-3.51-18.53,10.74c-1.15.67-2.43,1.08-3.76,1.2l-20.76,1.95c-.55.05-.97.52-.95,1.07l.27,9.65c.02.79.75,1.38,1.53,1.23l3.83-.72c.4-.08.81-.1,1.22-.07l16.92,1.23c1.75.13,3.49-.25,5.03-1.08l18.67-10.05-.11-.47,2.52,2.29,10.76,4.94c2,1.71,3.25,4.13,3.47,6.75l1.53,15.54c.07.76.78,1.29,1.53,1.13l12.55-2.73c.86-.19,1.44-.99,1.35-1.87Z"/>
        <polygon points="11.68 182.02 8.65 183.77 10.17 188.81 11.86 188.4 11.68 182.02"/>
        <path d="M122.55,150.99l14.56-1.06c.37-.03.73-.12,1.07-.27,3.18-1.43,6.04-3.5,8.39-6.07.99-1.08,1.88-2.23,2.98-3.23,1.02-.94,2.19-1.83,3.57-2.02.2-.03.4-.04.59.03.19.07.34.23.47.39,1.25,1.52,1.46,3.81.52,5.54-.3.54-.57,1.12-1.07,1.46-.22.15-.45.29-.68.43-.65.42-1.31.84-1.96,1.26-1.65,1.06-3.3,2.12-4.94,3.18-1.34.86-2.69,1.73-4.03,2.59-.54.35-1.17.52-1.81.5l-14.42-.46-3.22-2.28Z"/>
        <path d="M171.95,132.05c.17.06.33.13.49.2.87.41,1.73.85,2.59,1.27,2.11,1.01,4.22,2.02,6.33,3.03.63.3,1.2.7,1.69,1.2l1.95,1.96c.19.19.23.48.11.72l-.24.46c0,.77-2.75.34-3.14.23-.53-.15-1.03-.4-1.56-.57-.45-.14-.9-.15-1.33-.32-1.13-.45-2.31-.8-3.46-1.2-1.02-.35-2.51-.62-3.33-1.33-.27-.23-.49-.51-.7-.79-1.14-1.45-2.22-2.94-3.3-4.44-.02-.03-.04-.06-.04-.09,0-.06.06-.1.11-.12,1.18-.58,2.6-.64,3.84-.21Z"/>
        <path d="M32.8,165.41c-.71.75,1.34.3,1.8.37-.46.36-1.2.56-1.68.87-.2.13-.31.03-.32.47.26.42,2.32-.56,2.79-.48.24.47-1.88,1.33-2.16,1.7-.13.17-.23.34,0,.45.64.3,2.85-1.63,3.06-1.25.07.59-3.1,2.37-2.11,2.82.31.14,1.1-.4,1.4-.57.8-.47,1.81-1.63,2.56-1.97.36-.16.8-.81,1.17-1.11.57.46-.64,2.02-.36,2.5,1.09.83.87-.43,1.06-1.12.46-1.69.91-1.49.95-3.04.02-.6.4-2.17.13-2.53-.18-.24-1.11-.82-1.42-.85-.21-.02-2.9,1.44-3.28,1.7-.33.23-.56.53-.95.78-.39.25-2.36.94-2.66,1.25Z"/>
        <path d="M92.73,131.7c-.2,1.22-1.81,4.21-2.04,4.83-.47,1.28.29,1.19.13,2.03-.14.7-1.46.59-2.04.56-.03,0-.15,1.17-.18,1.3-.14.59-.5,1.12-1.04,1.43-.06.03-.12.07-.15.13-.14.25-.03.65-.2.93-.19.33-.52.57-.89.65-.55.12-1.12-.05-1.64-.27-1.69-.72-2.93-2.15-4.13-3.49-1.02-1.14-2.32-2.61-2.18-4.25.15-1.76.31-3.68.58-5.46.07-.46.16-.92.33-1.36.45-1.13,1.45-1.93,2.4-2.68,1.88-1.48,4.68-1.14,6.75-.24,1.68.73,3.45,2.36,4.16,4.15.22.57.25,1.16.15,1.75Z"/>
        <path d="M152.82,120.27s-1.68.68-1.7,3.22c-.02,2.53-.84,2.88-1.72,3.53-.92.67.6,1.65.6,1.65,0,0,.45,1.53.44,2.23,0,.7.87.83,1.56,2.09.51.92,8.49-.53,9.8-2.53s3.55-6.39,1.93-9.72c-1.61-3.34-6.51-4.73-8.62-3.65s-2.29,3.19-2.29,3.19Z"/>
        <path d="M79.03,137.75s-4.14,3.01-5.62,3.12c-1.48.1,11.78,4.71,11.78,4.71,0,0-3.21-1.24-3.14-2.39.07-1.16.31-1.49.68-1.52s-3.7-3.91-3.7-3.91Z"/>
        <path class="cls-3" d="M115.17,150.35s-14.15,3.8-15.47,3.59c-1.32-.2-9.14-6.22-9.14-6.22,0,0-.14-.81-1.71-1.48-1.01-.43-4.32-1.03-4.71-1.24-.53-.3-1.65-1.78-1.78-1.88-.09-.06-2.18-.72-4.03-1.46-1.96-.78-3.4-1.86-3.61-1.92-.9-.25-2.16.45-3.03.13-.74-.27-1.43-.69-2.19-.95-1.35-.45-3.13-.83-4.37.12-2.82,1.61-14.66,8.81-14.95,9.13-.28.31-11.93,13-11.93,13,0,0,3.63,2.93,3.97,2.81.34-.11,10.8-9.78,11.28-10.14.44-.33,5.25-1.97,6.15-2.27-.32.92-.63,1.84-.94,2.76-.79,2.35-1.34,4.81-2.8,6.86-1.41,1.98-5.47,4.75-5.5,4.87-.14.55.48,1.81.82,2.22.44.55.95,1.03,1.47,1.5,1.29,1.18,2.67,2.27,4.08,3.3.74.54,1.51,1.13,2.34,1.54.97-1.76,1.48-2.33.96-.35-.08.32-.15.7.06.95.17.19.45.24.71.26,1.71.17,3.44.18,5.16.05,3.93-.3,11.06-.13,12.12-2,.07-.12-2.08-1.93-2.92-2.83-.99-1.06-1.91-2.3-1.29-3.7.3-.68,6.34-8.93,9.04-10.21,2.56-1.22,10.27,3.71,13.06,3.35,2.79-.37,19.54-3.09,19.54-4.66s-.34-5.12-.34-5.12Z"/>
        <path d="M161.52,130.79c-.19.88,1.97,1.98,3.16,1.82h0c-1.76,2.48-4.85,3.65-7.81,2.97l-.17-.04s.5-2.4.3-2.82,4.52-1.93,4.52-1.93Z"/>
        <path d="M179.86,173.08c-.46-.28-1.01-.34-1.54-.37-1.23-.07-2.48,0-3.7.19-.89.14-1.91.37-2.62.96-.61.51-.44.96-.45,1.66-.01.8-.21,1.5-.17,2.32.11,1.87-.33,5.68-.54,7.14-.05.35-.24.67-.52.89-.73.57-2.1,1.68-2.53,2.02-5.07,4-7.69,13.42-12.7,16.63-.43.24-.84.5-1.21.83-.42.37-.57.69-.65,1.25-.1.71-.16,1.43-.36,2.12-.08.28-.41.92-.5,1.1-.02.03-.01.07.01.1l.48.6s.09.05.13.02c.28-.23,1.37-1.07,1.58-1.12.38-.08.8.03,1.09.3.3.28.28.79.41,1.16.26.75.62,1.46,1.08,2.11.3.42.96.86,1.47.97.3.06.59.15.88.22.47.11,1.78.5,2.07-.12.45-.95-1.78-1.27-2.12-2.16-.13-.34-.02-3.29-.06-4.04-.03-.51-.3-.98-.25-1.5.33-.64.78-1.24,1.21-1.81.58-.77,2.5-3.23,3.11-3.72,0,0,3.53-3.76,3.77-4.01.77-.75,1.71-1.61,1.94-1.82,1.57-1.43,3.31-2.67,4.87-4.08,1.59-1.43,3.66-8.25,4.08-9.61.47-1.5.94-3.01,1.41-4.51.22-.71.81-1.75.87-2.6.03-.46-.1-.86-.53-1.12Z"/>
        <path d="M159.84,211.73c-.75.3-1.79.42-2.56.17-.55-.18-.66-.32-.84-.85-.1-.29-.43-1.74-.43-2,0-.26.14-.43.19-.67.2-.97.02-1.92.03-2.87,0-.68.11-1.8,1.05-1.19,0,0,1.34.81,1.44.88.51.38,1.07.68,1.62,1,.1,0,.21-.2.26-.28.29-.53.46-1.16.86-1.61-.08-.05-4.55-1-4.71-1.12-.17-.13-.25-.8-.48-.87-.17-.05-.46.23-.48.41-.01.14.25.5.28.68.06.38-1.99,2.73-2.08,2.69-.2-.08-.3-1.13-.68-1.19-.12.25-.34.26-.61.97-.1.26-.61,5.15-.61,5.15l.66.25s.63-.73.76-.93c.26-.39.76-1.1,1.31-.83.21.1.48.96.57,1.18.27.68.17,1.55.64,2.11.74.88,1.89,1.66,2.99,1.99.13.04.71.22.96.22.43.01,1.3.15,1.62-.48.28-.54-1.52-2.22-1.75-2.79Z"/>
        <path d="M161.8,130.46c1.31-2,3.55-6.39,1.93-9.72-1.61-3.34-6.51-4.73-8.62-3.65s-2.29,3.19-2.29,3.19v.05c.83-.05,1.78-.03,2.28.61.37.47.36,1.12.41,1.71.06.73.22,1.46.48,2.15.09.24.2.48.4.64.32.25.77.22,1.17.31.54.13,1,.53,1.21,1.04.19.48.16,1.02.26,1.53.23,1.2,1.23,2.21,2.43,2.45"/>
        <path d="M78.36,135.54c.15-1.76.31-3.68.58-5.46.07-.46.16-.92.33-1.36.45-1.13,1.45-1.93,2.4-2.68,1.88-1.48,4.68-1.14,6.75-.24,1.68.73,3.45,2.36,4.16,4.15.22.57.25,1.16.15,1.75l-.26.05c-1.83-.49-3.87-.14-5.44.93-.3.21-.59.44-.93.57s-.76.14-1.04-.08c-.29-.23-.38-.63-.6-.94-.4-.56-1.21-.71-1.87-.52-.66.19-1.2.66-1.69,1.16-.92.93-1.71,1.98-2.34,3.12"/>
        <path class="cls-2" d="M152.71,137.11c1.03-.92,2.47-1.24,3.77-1.58.65-.17,1.39-.05,2.07-.16.78-.13,1.54-.37,2.26-.67,1.9-.8,3.47-2.22,5.51-2.65,1.19-.25,2.63.54,3.66,1.04.56.27,1.13.55,1.57.99.41.4.68.91.93,1.42,1.33,2.73,2.1,5.72,2.27,8.75.08,1.44.05,2.68.32,4.12.85,4.42,4.84,7.34,5.78,11.74.36,1.65.56,3.37.65,5.07.25,4.61.22,9.03-.52,13.6-.33,2.02-.77,4.06-.6,6.11.13,1.64.7,3.29,1.85,4.5.69.73,1.14.94.13,1.71-.64.49-1.54.66-2.33.63-1.25-.04-2.47-.45-3.72-.42-.81.02-1.6.23-2.39.42-3.37.81-6.81,1.33-10.26,1.56-1.42.09-2.86.14-4.26-.12-1.47-.27-1.59-.79-1.25-2.09.32-1.21.55-2.45.67-3.7.24-2.43.09-4.89-.45-7.27-.36-1.58-.88-3.13-.99-4.75-.15-2.26.5-4.52.87-6.73.32-1.89,1.42-3.61,2.05-5.44.76-2.22,1.33-4.55,1.35-6.91,0-1.4.15-3.95-.58-5.19-.33-.56-1.32-.84-1.88-1.09-1.85-.83-3.64-1.97-4.73-3.69-.78-1.23.18-2.65.33-3.94.15-1.31-.53-2.62-1.53-3.49-.38-.33-1.11-.51-1.02-1.13.03-.2.17-.36.31-.5l.1-.09s.04-.04.06-.06Z"/>
        <path d="M171.17,211.99l2.39-.59c.46-.11.73-.56.58-.95-.13-.32-.25-.67-.29-.93l-1.84.15s-.02,1.91-.83,2.32Z"/>
        <path d="M171.8,208.28c.02.1.43.82.88,1.61.54.95,1.14,1.99,1.19,2.07l.61-.14c.01-.09.11-1.28.19-2.38.06-.9.12-1.73.1-1.83h0c-.73.8-1.96,1.08-2.96.67h0Z"/>
        <path d="M172.56,209.37s.27,1.81-.23,2.2-1.86.55-1.86.55c0,0-.84.11-1.04-.78-.08-.37.25-.72.31-1.08.16.06.34.08.52.1.47.04.83-.47.94-1.26.04-.24.24-.49.44-.64.12-.09.27-.15.43-.16.02,0,.17,0,.18.01,0,0,.31,1.06.31,1.06Z"/>
        <path d="M171.05,208c-.05-.82.74-1.36.63-2.17,0-.06-.02-.12,0-.17.04-.15.24-.18.39-.18.69-.03,1.5-.15,2.12-.44,0,.29.04.58.12.85-.62-.03-1.38,0-1.96.2-.08.03-.29.26-.3.33-.04.56.16,1.24.72,2.05-.38.19-1.36.63-1.62.97-.03-.55-.05-.89-.08-1.44Z"/>
        <path d="M172,205.9c-.2.08-.11.2-.16.41-.27-.25-.83-.38-1.18-.5-.03,0-.06-.02-.07-.04,0-.01,0-.03-.01-.05-.02-.29,0-.59.07-.87.05-.2.16-.62.32-.29.27.53.53.99,1.03,1.35Z"/>
      </g>
      <g>
        <path class="cls-1" d="M198.37,218.41v-99.6h37.56c10.14,0,19.27,2.12,27.39,6.36,8.11,4.24,14.46,10.15,19.02,17.73,4.56,7.58,6.85,16.12,6.85,25.61,0,7.01-1.36,13.61-4.08,19.8-2.72,6.18-6.42,11.48-11.1,15.88-4.68,4.41-10.33,7.88-16.95,10.42-6.62,2.54-13.66,3.81-21.13,3.81h-37.56ZM215.93,202.22h20.01c9.74,0,17.89-3.17,24.45-9.5,6.56-6.33,9.83-14.31,9.83-23.94s-3.22-17.9-9.66-24.25c-6.44-6.36-14.65-9.54-24.62-9.54h-20.01v67.23Z"/>
        <path class="cls-1" d="M303.44,168.51c0-7.05,1.37-13.75,4.12-20.11,2.74-6.36,6.48-11.82,11.2-16.38,4.73-4.56,10.37-8.18,16.95-10.85s13.52-4.01,20.85-4.01c10.16,0,19.3,2.2,27.43,6.6,8.13,4.4,14.47,10.52,19.05,18.35,4.57,7.83,6.86,16.63,6.86,26.4,0,7.24-1.36,14.05-4.09,20.42-2.72,6.37-6.43,11.82-11.12,16.37-4.69,4.55-10.34,8.13-16.97,10.76-6.63,2.63-13.68,3.95-21.16,3.95s-14.56-1.3-21.13-3.91c-6.57-2.61-12.2-6.18-16.88-10.73-4.68-4.54-8.37-10.01-11.07-16.4-2.7-6.39-4.05-13.21-4.05-20.45ZM322.39,168.78c0,6.54,1.51,12.54,4.53,18,3.02,5.46,7.16,9.76,12.42,12.92,5.26,3.16,11.04,4.73,17.36,4.73,9.68,0,17.81-3.42,24.38-10.26,6.57-6.84,9.86-15.3,9.86-25.39,0-6.73-1.45-12.82-4.36-18.28-2.9-5.46-6.97-9.74-12.21-12.85-5.23-3.11-11.12-4.66-17.67-4.66-9.82,0-18,3.41-24.52,10.23-6.53,6.82-9.79,15.34-9.79,25.57Z"/>
        <path class="cls-1" d="M429.06,218.41l2.77-100.01h7.82l41.36,72.55,40.34-72.55h7.68l2.81,100.01h-17.08l-.48-57.2-30.71,58.03h-6.09l-31.06-57.06-.28,56.23h-17.08Z"/>
      </g>
    </g>
  </g>
</svg>